<svg width="400" height="300" viewBox="0 0 400 300" fill="none" xmlns="http://www.w3.org/2000/svg">
<rect width="400" height="300" fill="#F5F7F8"/>
<path d="M183.329 138.175L186.73 115.6H169.04L161.648 134.95C161.42 135.638 161.3 136.352 161.3 137.1C161.3 141.847 166.245 145.7 172.355 145.7C177.988 145.7 182.645 142.415 183.329 138.175ZM200 145.7C206.106 145.7 211.055 141.847 211.055 137.1C211.055 136.924 211.042 136.747 211.034 136.58L208.845 115.6H191.155L188.962 136.563C188.953 136.739 188.945 136.915 188.945 137.1C188.945 141.847 193.894 145.7 200 145.7ZM221.5 150.198V167.2H178.5V150.224C176.617 150.903 174.544 151.29 172.355 151.29C171.517 151.29 170.704 151.191 169.9 151.079V178.38C169.9 181.691 172.605 184.4 175.911 184.4H224.08C227.391 184.4 230.1 181.687 230.1 178.38V151.084C229.287 151.208 228.467 151.279 227.645 151.294C225.548 151.292 223.468 150.921 221.5 150.198V150.198ZM238.356 134.95L230.956 115.6H213.27L216.667 138.141C217.329 142.398 221.986 145.7 227.645 145.7C233.751 145.7 238.7 141.847 238.7 137.1C238.7 136.352 238.58 135.638 238.356 134.95Z" fill="#B4B9BA"/>
</svg>
